# xmcd
#
# Track frame offsets:
#	183
#	3948
#	19458
#	51700
#	70675
#	88913
#	111890
#	145203
#	156380
#	177683
#	198765
#	212043
#
# Disc length: 2908
#
# Revision: 2
# Processed by: cddbd v1.5.1PL0 Copyright (c) Steve Scherf et al.
# Submitted via: EasyCDDAExtractor 5.0.7
# Normalized: r1:DSETVAR1
#
DISCID=b30b5a0c
DTITLE=Various Artist - Dai Hoi Nhac Tre Hai Au
DYEAR=1900
DGENRE=
TTITLE0=Kieu Nga Tuyet Nhung - Gioi thieu chuong trinh
TTITLE1=Kieu Nga - Vu khuc xuan nong
TTITLE2=Ngoc Lan - Song bien muon trung
TTITLE3=Trung Hanh - Nhung mua nang dep
TTITLE4=Kieu Nga - Tinh dep thiet tha
TTITLE5=Kenny - Thu tuong tu
TTITLE6=Kieu Nga - Tinh dep xot xa 2
TTITLE7=Kenny - Nguong song doi anh
TTITLE8=Tuyet Nhung - Chi co anh trong tim
TTITLE9=Ngoc Lan - Vang bong nguoiyeu
TTITLE10=Thuy Vi - Mot nu hon nong
TTITLE11=Instruments - Hawaii five o
EXTD=
EXTT0=
EXTT1=
EXTT2=
EXTT3=
EXTT4=
EXTT5=
EXTT6=
EXTT7=
EXTT8=
EXTT9=
EXTT10=
EXTT11=
PLAYORDER=
